# xmcd
#
# Track frame offsets: 
#        150
#        10985
#        22930
#        33002
#        44551
#        54377
#        65198
#        79564
#        91261
#        100380
#        112515
#        124700
#        134472
#        144310
#        157674
#        170122
#        182020
#        192856
#        203937
#        215097
#        226067
#        238024
#        248546
#        260580
#        270825
#        281934
#        296458
#        309027
#        322229
#        335034
#
# Disc length: 4624 seconds
#
# Revision: 0
# Processed by: cddbd v1.5.2PL0 Copyright (c) Steve Scherf et al.
# Submitted via: ExactAudioCopy v0.95b3
#
DISCID=a4120e1e
DTITLE=The Beatles  - Help!  Deluxe - Disc 2 - mono  FLAC
DYEAR=1900
DGENRE=
TTITLE0=Help! (mono)
TTITLE1=The Night Before (mono)
TTITLE2=You've Got To Hide Your Love Away (mono)
TTITLE3=I Need You (mono)
TTITLE4=Another Girl (mono)
TTITLE5=You're Going To Lose That Girl (mono)
TTITLE6=Ticket To Ride (mono)
TTITLE7=Act Naturally (mono)
TTITLE8=It's Only Love (mono)
TTITLE9=You Like Me Too Much (mono)
TTITLE10=Tell Me What You See (mono)
TTITLE11=I've Just Seen A Face  (mono)
TTITLE12=Yesterday (mono)
TTITLE13=Dizzy Miss Lizzie (mono)
TTITLE14=Yes It Is (mono)
TTITLE15=I'm Down (mono)
TTITLE16=Bad Boy  (mono)
TTITLE17=If You've Got Trouble (fake stereo)
TTITLE18=That Means A Lot (fake stereo)
TTITLE19=Help! - production acetate
TTITLE20=The Night Before - production acetate
TTITLE21=You've Got To Hide Your Love Away - production acetate
TTITLE22=I Need You - production acetate
TTITLE23=Another Girl - production acetate
TTITLE24=You're Going To Lose That Girl - production acetate
TTITLE25=Ticket To Ride - production acetate
TTITLE26=You Like Me Too Much - production acetate
TTITLE27=Yes It Is - production acetate
TTITLE28=If You've Got Trouble (anthology 2)
TTITLE29=That Means A Lot (1976 RM1)
EXTD=
EXTT0=
EXTT1=
EXTT2=
EXTT3=
EXTT4=
EXTT5=
EXTT6=
EXTT7=
EXTT8=
EXTT9=
EXTT10=
EXTT11=
EXTT12=
EXTT13=
EXTT14=
EXTT15=
EXTT16=
EXTT17=
EXTT18=
EXTT19=
EXTT20=
EXTT21=
EXTT22=
EXTT23=
EXTT24=
EXTT25=
EXTT26=
EXTT27=
EXTT28=
EXTT29=
PLAYORDER=
